<svg width="1014" height="700" viewBox="0 0 1014 700" fill="none" xmlns="http://www.w3.org/2000/svg" xmlns:xlink="http://www.w3.org/1999/xlink">
<g clip-path="url(#clip0_10827_1086)">
<rect width="700" height="1014" transform="translate(3.0598e-05 700) rotate(-90)" fill="white"></rect>
<g filter="url(#filter0_f_10827_1086)">
<rect x="-507.682" y="-869.396" width="2871.88" height="1435.94" transform="rotate(45 -507.682 -869.396)" fill="url(#pattern0_10827_1086)" fill-opacity="0.5"></rect>
</g>
<path d="M119.828 205.968L87.2887 85.9578H105.894L123.533 155.789C124.607 159.978 125.601 164.193 126.514 168.435C127.48 172.677 128.393 176.919 129.252 181.161C130.165 185.349 131.024 189.564 131.829 193.806H129.01C129.87 189.564 130.756 185.349 131.668 181.161C132.581 176.919 133.521 172.677 134.487 168.435C135.508 164.193 136.555 159.978 137.629 155.789L155.831 85.9578H175.404L193.445 155.789C194.519 159.978 195.54 164.193 196.506 168.435C197.526 172.677 198.493 176.919 199.406 181.161C200.372 185.349 201.285 189.564 202.144 193.806H199.164C200.023 189.564 200.882 185.349 201.741 181.161C202.654 176.919 203.594 172.677 204.56 168.435C205.581 164.193 206.574 159.978 207.541 155.789L225.18 85.9578H243.866L211.165 205.968H190.707L170.974 132.593C169.631 127.438 168.343 122.095 167.108 116.564C165.926 111.034 164.691 105.261 163.403 99.2475H167.671C166.383 105.261 165.148 111.034 163.966 116.564C162.785 122.095 161.496 127.438 160.1 132.593L140.528 205.968H119.828ZM254.739 205.968V120.914H271.734V205.968H254.739ZM263.196 106.255C260.189 106.255 257.639 105.261 255.545 103.275C253.504 101.234 252.484 98.7643 252.484 95.8647C252.484 92.9114 253.504 90.4414 255.545 88.4547C257.639 86.4142 260.189 85.394 263.196 85.394C266.203 85.394 268.754 86.4142 270.848 88.4547C272.942 90.4414 273.989 92.9114 273.989 95.8647C273.989 98.7643 272.942 101.234 270.848 103.275C268.754 105.261 266.203 106.255 263.196 106.255ZM307.979 85.9578V205.968H290.984V85.9578H307.979ZM344.223 85.9578V205.968H327.229V85.9578H344.223Z" fill="black"></path>
<path d="M750.254 556.745H764.12V614.525H753.722V573.338L737.707 614.525H728.297L712.287 573.256V614.525H701.885V556.745H715.754L733.004 601.317L750.259 556.745H750.254ZM813.808 593.473C813.808 597.713 812.886 601.495 811.043 604.821C809.2 608.152 806.613 610.752 803.286 612.624C799.955 614.496 796.173 615.43 791.933 615.43C787.693 615.43 783.763 614.484 780.461 612.583C777.159 610.686 774.571 608.07 772.703 604.743C770.831 601.416 769.897 597.655 769.897 593.473C769.897 589.291 770.831 585.468 772.703 582.166C774.576 578.864 777.175 576.264 780.506 574.367C783.833 572.47 787.647 571.52 791.937 571.52C796.227 571.52 800.029 572.458 803.331 574.326C806.633 576.202 809.204 578.802 811.051 582.129C812.894 585.455 813.816 589.241 813.816 593.477L813.808 593.473ZM803.819 593.473C803.819 590.944 803.327 588.675 802.335 586.666C801.343 584.658 799.942 583.116 798.128 582.042C796.31 580.971 794.247 580.434 791.933 580.434C789.619 580.434 787.474 580.971 785.664 582.042C783.845 583.116 782.428 584.641 781.411 586.621C780.395 588.605 779.882 590.886 779.882 593.473C779.882 596.06 780.395 598.341 781.411 600.325C782.428 602.309 783.845 603.834 785.664 604.908C787.478 605.979 789.569 606.516 791.933 606.516C794.297 606.516 796.31 605.979 798.128 604.908C799.942 603.834 801.348 602.309 802.335 600.325C803.327 598.345 803.819 596.06 803.819 593.473ZM861.347 555.919V614.525H851.362V609.657C850.044 611.421 848.304 612.822 846.163 613.864C844.018 614.91 841.46 615.43 838.484 615.43C834.633 615.43 831.219 614.538 828.252 612.748C825.28 610.959 822.97 608.413 821.317 605.111C819.668 601.809 818.841 597.928 818.841 593.473C818.841 589.018 819.639 585.303 821.234 582C822.83 578.698 825.07 576.128 827.962 574.285C830.851 572.441 834.248 571.52 838.158 571.52C841.183 571.52 843.783 572.012 845.956 573.003C848.13 573.995 849.932 575.343 851.362 577.045V555.915H861.347V555.919ZM851.693 593.473C851.693 590.944 851.226 588.675 850.287 586.666C849.353 584.658 848.031 583.116 846.328 582.042C844.622 580.971 842.613 580.434 840.303 580.434C837.877 580.434 835.802 580.971 834.071 582.042C832.339 583.116 831.017 584.658 830.107 586.666C829.202 588.675 828.748 590.944 828.748 593.473C828.748 596.002 829.202 598.275 830.107 600.284C831.017 602.292 832.351 603.83 834.112 604.904C835.877 605.975 837.939 606.512 840.307 606.512C842.675 606.512 844.555 605.975 846.287 604.904C848.019 603.83 849.358 602.292 850.292 600.284C851.23 598.275 851.697 596.006 851.697 593.473H851.693ZM909.634 572.425V614.521H899.649V609.735C898.273 611.496 896.512 612.884 894.367 613.905C892.222 614.922 889.66 615.43 886.689 615.43C882.837 615.43 879.427 614.538 876.456 612.748C873.485 610.959 871.187 608.413 869.563 605.111C867.938 601.809 867.128 597.928 867.128 593.473C867.128 589.018 867.926 585.303 869.521 582C871.116 578.698 873.356 576.128 876.249 574.285C879.138 572.441 882.535 571.52 886.445 571.52C889.524 571.52 892.194 572.057 894.45 573.127C896.702 574.202 898.438 575.591 899.649 577.293V572.425H909.634ZM899.976 593.473C899.976 590.944 899.508 588.675 898.57 586.666C897.636 584.658 896.314 583.116 894.611 582.042C892.904 580.971 890.896 580.434 888.586 580.434C886.16 580.434 884.085 580.971 882.353 582.042C880.622 583.116 879.299 584.658 878.39 586.666C877.485 588.675 877.031 590.944 877.031 593.473C877.031 596.002 877.485 598.275 878.39 600.284C879.299 602.292 880.634 603.83 882.395 604.904C884.159 605.975 886.222 606.512 888.59 606.512C890.958 606.512 892.838 605.975 894.57 604.904C896.301 603.83 897.64 602.292 898.574 600.284C899.513 598.275 899.98 596.006 899.98 593.473H899.976ZM918.011 555.919V614.525H928V555.919H918.011Z" fill="black"></path>
<path d="M656.38 597.105C656.581 597.432 656.346 597.853 655.961 597.853H627.446C627.097 597.853 626.773 597.668 626.597 597.366L597.482 547.469C597.291 547.142 597.527 546.73 597.906 546.73H623.251C624.618 546.73 625.887 547.44 626.602 548.605L656.38 597.105ZM579.271 570.348C579.463 570.676 579.227 571.088 578.847 571.088H551.867C551.518 571.088 551.195 570.903 551.018 570.601L537.499 547.47C537.308 547.142 537.544 546.73 537.924 546.73H563.493C564.716 546.73 565.847 547.379 566.464 548.435L579.271 570.348ZM506.316 601.038C505.602 599.814 505.603 598.3 506.317 597.077L534.568 548.661C534.758 548.336 535.227 548.336 535.417 548.661L546.725 568.043L548.876 571.801C549.05 572.105 549.049 572.478 548.874 572.781L543.792 581.568L519.822 622.756C519.632 623.082 519.162 623.082 518.972 622.757L506.316 601.038ZM551.082 622.668C550.377 623.876 549.084 624.619 547.686 624.619H522.399C522.02 624.619 521.784 624.207 521.975 623.879L551.09 573.983C551.266 573.681 551.59 573.495 551.939 573.495H578.919C579.299 573.495 579.535 573.907 579.344 574.235L551.082 622.668ZM581.462 573.531C581.016 572.765 581.016 571.819 581.463 571.053L594.55 548.662C594.74 548.337 595.21 548.337 595.4 548.663L624.448 598.634C624.626 598.939 624.626 599.317 624.448 599.622L610.996 622.756C610.806 623.082 610.336 623.082 610.146 622.756L581.462 573.531ZM642.209 622.826C641.484 623.944 640.242 624.619 638.909 624.619H613.502C613.123 624.619 612.886 624.207 613.078 623.879L626.597 600.748C626.773 600.446 627.096 600.261 627.446 600.261H655.935C656.325 600.261 656.56 600.693 656.348 601.02L642.209 622.826Z" fill="black"></path>
</g>
<defs>
<filter id="filter0_f_10827_1086" x="-1747.79" y="-1094.14" width="3495.57" height="3495.57" filterUnits="userSpaceOnUse" color-interpolation-filters="sRGB">
<feFlood flood-opacity="0" result="BackgroundImageFix"></feFlood>
<feBlend mode="normal" in="SourceGraphic" in2="BackgroundImageFix" result="shape"></feBlend>
<feGaussianBlur stdDeviation="112.37" result="effect1_foregroundBlur_10827_1086"></feGaussianBlur>
</filter>
<pattern id="pattern0_10827_1086" patternContentUnits="objectBoundingBox" width="1" height="1">
<use xlink:href="#image0_10827_1086" transform="scale(0.000244141 0.000488281)"></use>
</pattern>
<clipPath id="clip0_10827_1086">
<rect width="700" height="1014" fill="white" transform="translate(3.0598e-05 700) rotate(-90)"></rect>
</clipPath>
<image id="image0_10827_1086" width="4096" height="2048" preserveAspectRatio="none"></image>
</defs>
</svg>