<svg width="1014" height="700" viewBox="0 0 1014 700" fill="none" xmlns="http://www.w3.org/2000/svg" xmlns:xlink="http://www.w3.org/1999/xlink">
<g clip-path="url(#clip0_10827_1317)">
<rect width="700" height="1014" transform="translate(3.0598e-05 700) rotate(-90)" fill="white"></rect>
<g filter="url(#filter0_f_10827_1317)">
<rect x="-298.786" y="-823.047" width="2871.88" height="1435.94" transform="rotate(45 -298.786 -823.047)" fill="url(#pattern0_10827_1317)" fill-opacity="0.5"></rect>
</g>
<path d="M96.954 205.968V85.9576H116.768L162.597 158.528C163.671 160.246 165.067 162.555 166.785 165.454C168.504 168.3 170.329 171.415 172.262 174.797C174.195 178.127 176.021 181.375 177.739 184.543L175.887 188.651C175.78 185.537 175.645 181.912 175.484 177.777C175.323 173.643 175.216 169.696 175.162 165.938C175.108 162.179 175.081 159.333 175.081 157.4V85.9576H193.043V205.968H173.068L132.071 141.13C130.836 139.143 129.172 136.432 127.077 132.995C124.983 129.559 122.594 125.558 119.909 120.994C117.224 116.43 114.351 111.49 111.291 106.174L113.868 102.711C114.137 108.832 114.325 114.39 114.432 119.383C114.593 124.377 114.7 128.699 114.754 132.351C114.808 136.002 114.835 138.902 114.835 141.05V205.968H96.954ZM239.436 207.337C233.798 207.337 228.75 206.371 224.294 204.437C219.891 202.504 216.4 199.632 213.823 195.819C211.246 192.007 209.957 187.282 209.957 181.644C209.957 176.811 210.87 172.837 212.695 169.723C214.575 166.609 217.098 164.139 220.267 162.313C223.435 160.487 227.032 159.118 231.059 158.205C235.087 157.239 239.248 156.514 243.544 156.031C248.913 155.333 253.128 154.796 256.189 154.42C259.303 153.99 261.505 153.346 262.794 152.487C264.136 151.574 264.807 150.097 264.807 148.057V147.332C264.807 144.593 264.136 142.177 262.794 140.083C261.451 137.935 259.491 136.244 256.914 135.009C254.337 133.774 251.249 133.156 247.651 133.156C244.054 133.156 240.859 133.747 238.067 134.928C235.328 136.11 233.127 137.747 231.462 139.841C229.851 141.882 228.938 144.218 228.724 146.849H212.051C212.32 141.425 213.957 136.646 216.964 132.512C219.971 128.377 224.106 125.129 229.368 122.766C234.63 120.403 240.805 119.222 247.893 119.222C253.102 119.222 257.8 119.893 261.988 121.236C266.176 122.578 269.72 124.511 272.62 127.035C275.573 129.505 277.802 132.485 279.305 135.975C280.862 139.465 281.641 143.358 281.641 147.654V205.968H264.888V193.886H264.566C263.384 196.195 261.773 198.37 259.733 200.41C257.693 202.451 255.008 204.115 251.679 205.404C248.403 206.693 244.322 207.337 239.436 207.337ZM242.899 193.645C247.893 193.645 252.001 192.759 255.223 190.987C258.498 189.161 260.914 186.772 262.471 183.818C264.082 180.865 264.888 177.643 264.888 174.153V164.166C264.297 164.649 263.331 165.105 261.988 165.535C260.699 165.911 259.115 166.287 257.236 166.662C255.357 166.985 253.316 167.334 251.115 167.71C248.913 168.085 246.712 168.408 244.51 168.676C241.396 169.106 238.496 169.831 235.811 170.851C233.127 171.817 230.952 173.186 229.287 174.958C227.677 176.73 226.871 179.066 226.871 181.966C226.871 184.382 227.515 186.476 228.804 188.248C230.093 189.966 231.945 191.309 234.362 192.275C236.778 193.188 239.624 193.645 242.899 193.645ZM300.81 205.968V120.914H317.322V138.875H315.711C317.322 134.579 319.47 130.982 322.154 128.082C324.893 125.129 328.034 122.927 331.578 121.477C335.122 119.974 338.827 119.222 342.693 119.222C349.298 119.222 354.936 121.128 359.607 124.941C364.332 128.699 367.232 133.344 368.306 138.875H365.648C366.829 135.116 368.736 131.76 371.367 128.807C374.051 125.854 377.327 123.518 381.193 121.8C385.059 120.081 389.355 119.222 394.08 119.222C399.396 119.222 404.202 120.377 408.497 122.686C412.793 124.994 416.203 128.431 418.726 132.995C421.25 137.506 422.512 143.171 422.512 149.99V205.968H405.437V151.44C405.437 145.372 403.745 140.969 400.362 138.23C396.98 135.492 392.979 134.123 388.361 134.123C384.603 134.123 381.354 134.928 378.616 136.539C375.877 138.15 373.756 140.351 372.253 143.144C370.749 145.936 369.997 149.158 369.997 152.809V205.968H353.244V150.312C353.244 145.426 351.66 141.506 348.492 138.553C345.378 135.599 341.404 134.123 336.572 134.123C333.296 134.123 330.209 134.901 327.309 136.459C324.463 138.016 322.154 140.325 320.382 143.385C318.664 146.392 317.805 150.151 317.805 154.661V205.968H300.81ZM478.087 207.901C469.657 207.901 462.408 205.995 456.34 202.182C450.326 198.37 445.682 193.135 442.406 186.476C439.185 179.764 437.574 172.139 437.574 163.602C437.574 154.903 439.265 147.225 442.648 140.566C446.031 133.854 450.702 128.592 456.663 124.78C462.623 120.914 469.469 118.981 477.201 118.981C483.215 118.981 488.638 120.054 493.471 122.202C498.357 124.35 502.546 127.411 506.036 131.384C509.526 135.304 512.211 139.976 514.09 145.399C515.97 150.822 516.909 156.836 516.909 163.441V168.032H445.225V155.145H507.969L500.478 159.091C500.478 153.829 499.539 149.265 497.659 145.399C495.78 141.479 493.095 138.472 489.605 136.378C486.168 134.23 482.088 133.156 477.362 133.156C472.691 133.156 468.637 134.23 465.2 136.378C461.764 138.472 459.079 141.479 457.146 145.399C455.266 149.265 454.327 153.829 454.327 159.091V166.421C454.327 171.79 455.266 176.542 457.146 180.677C459.025 184.758 461.737 187.953 465.281 190.262C468.878 192.571 473.228 193.725 478.329 193.725C482.034 193.725 485.309 193.161 488.155 192.034C491.001 190.852 493.364 189.242 495.243 187.201C497.122 185.161 498.465 182.798 499.27 180.113H515.621C514.6 185.59 512.318 190.423 508.774 194.611C505.284 198.746 500.881 201.994 495.565 204.357C490.303 206.72 484.477 207.901 478.087 207.901Z" fill="black"></path>
<path d="M487.273 600.977C481.46 600.977 476.746 596.255 476.746 590.433C476.746 584.61 481.46 579.888 487.273 579.888C492.364 579.888 496.613 583.511 497.587 588.323H518.785C517.701 571.836 504.007 558.799 487.273 558.799C477.795 558.799 469.293 562.983 463.503 569.607C463.05 569.091 462.578 568.582 462.086 568.089C449.752 555.735 429.755 555.735 417.423 568.089C405.092 580.443 405.09 600.473 417.423 612.824C429.256 624.676 448.142 625.157 460.549 614.267L445.56 599.254C441.474 601.966 435.911 601.519 432.311 597.913C428.201 593.796 428.201 587.117 432.311 583.001C436.421 578.884 443.089 578.884 447.198 583.001C450.799 586.607 451.245 592.179 448.537 596.272L463.52 611.278C463.52 611.278 463.524 611.285 463.526 611.287C469.314 617.894 477.807 622.068 487.273 622.068C504.007 622.068 517.701 609.031 518.785 592.543H497.587C496.613 597.356 492.364 600.977 487.273 600.977Z" fill="black"></path>
<path d="M554.305 606.762L566.438 574.499H574.793L586.97 606.762H578.704L576.749 601.021H564.305L562.394 606.762H554.305ZM570.571 582.553L566.394 594.835H574.704L570.571 582.553ZM595.797 582.82V586.069C597.352 583.443 600.552 582.286 603.13 582.286C609.307 582.286 613.662 586.959 613.662 594.791C613.662 602.623 609.307 607.34 603.13 607.34C600.552 607.34 597.352 606.183 595.797 603.558V614.549H588.464V582.82H595.797ZM600.73 587.982C597.841 587.982 595.441 589.852 595.441 594.791C595.441 599.731 597.841 601.644 600.73 601.644C603.618 601.644 606.063 599.241 606.063 594.791C606.063 590.341 603.618 587.982 600.73 587.982ZM623.813 582.82V586.069C625.368 583.443 628.568 582.286 631.146 582.286C637.323 582.286 641.678 586.959 641.678 594.791C641.678 602.623 637.323 607.34 631.146 607.34C628.568 607.34 625.368 606.183 623.813 603.558V614.549H616.48V582.82H623.813ZM628.746 587.982C625.857 587.982 623.457 589.852 623.457 594.791C623.457 599.731 625.857 601.644 628.746 601.644C631.635 601.644 634.079 599.241 634.079 594.791C634.079 590.341 631.635 587.982 628.746 587.982ZM651.829 574.499V606.762H644.496V574.499H651.829ZM656.193 582.82H663.571V606.762H656.193V582.82ZM656.193 574.499H663.526V580.373H656.193V574.499ZM684.778 599.241H691.533C689.399 604.893 684.378 607.34 679.622 607.34C671.845 607.34 666.512 602.623 666.512 594.658C666.512 587.003 672.334 582.108 679.311 582.108C687.266 582.108 692.111 588.116 691.622 596.66H673.889C674.111 600.087 676.733 601.644 679.4 601.644C682.2 601.644 683.933 600.665 684.778 599.241ZM679.311 587.715C676.689 587.715 674.378 589.05 673.978 592.21H684.333C684.2 589.184 682.111 587.715 679.311 587.715ZM711.304 574.499H718.638V606.762H711.304V603.558C709.751 606.183 706.55 607.34 703.973 607.34C697.795 607.34 693.44 602.623 693.44 594.791C693.44 586.959 697.795 582.286 703.973 582.286C706.55 582.286 709.751 583.443 711.304 586.069V574.499ZM706.373 587.982C703.484 587.982 701.039 590.341 701.039 594.791C701.039 599.241 703.484 601.644 706.373 601.644C709.26 601.644 711.662 599.731 711.662 594.791C711.662 589.852 709.26 587.982 706.373 587.982ZM754.023 594.746H761.49C760.292 602.223 754.29 607.34 746.159 607.34C736.114 607.34 730.027 600.932 730.027 590.608C730.027 580.417 736.293 573.965 746.38 573.965C754.423 573.965 760.201 579.216 761.269 586.558H753.802C752.958 582.153 749.713 580.239 746.113 580.239C741.624 580.239 738.07 584.022 738.07 590.608C738.07 597.417 741.582 601.066 746.201 601.066C749.534 601.066 753.046 599.641 754.023 594.746ZM775.575 587.804C772.684 587.804 770.373 589.584 770.373 594.702C770.373 599.731 772.596 601.644 775.575 601.644C778.55 601.644 780.773 599.731 780.773 594.702C780.773 589.584 778.462 587.804 775.575 587.804ZM775.575 582.108C782.196 582.108 788.24 586.024 788.24 594.702C788.24 603.379 782.196 607.34 775.575 607.34C768.951 607.34 762.906 603.379 762.906 594.702C762.906 586.024 768.951 582.108 775.575 582.108ZM798.507 594.301V606.762H791.173V582.82H798.507V585.98C799.574 584.2 802.152 582.286 805.752 582.286C809.616 582.286 811.751 583.666 812.862 586.336C814.684 583.666 817.662 582.286 821.038 582.286C827.171 582.286 829.084 585.891 829.084 592.388V606.762H821.751V594.212C821.751 590.786 821.572 587.982 818.063 587.982C815.039 587.982 813.795 590.029 813.795 594.301V606.762H806.462V594.212C806.462 590.786 806.283 587.982 802.774 587.982C799.75 587.982 798.507 590.029 798.507 594.301ZM840.324 582.82V586.069C841.88 583.443 845.08 582.286 847.658 582.286C853.833 582.286 858.188 586.959 858.188 594.791C858.188 602.623 853.833 607.34 847.658 607.34C845.08 607.34 841.88 606.183 840.324 603.558V614.549H832.991V582.82H840.324ZM845.256 587.982C842.369 587.982 839.97 589.852 839.97 594.791C839.97 599.731 842.369 601.644 845.256 601.644C848.146 601.644 850.591 599.241 850.591 594.791C850.591 590.341 848.146 587.982 845.256 587.982ZM875.807 606.762V603.424C874.339 605.783 872.473 607.34 868.785 607.34C862.428 607.34 860.518 603.736 860.518 597.238V582.82H867.851V595.414C867.851 598.84 867.939 601.644 871.497 601.644C874.651 601.644 875.807 599.908 875.807 595.459V582.82H883.14V606.762H875.807ZM888.702 582.82V576.279H896.036V582.82H901.28V588.027H896.036V598.752C896.036 601.021 896.746 601.466 899.19 601.466H901.28V606.762H896.612C890.701 606.762 888.702 605.605 888.702 600.042V588.027H884.926V582.82H888.702ZM921.124 599.241H927.879C925.743 604.893 920.724 607.34 915.968 607.34C908.189 607.34 902.857 602.623 902.857 594.658C902.857 587.003 908.68 582.108 915.656 582.108C923.611 582.108 928.455 588.116 927.967 596.66H910.233C910.457 600.087 913.078 601.644 915.744 601.644C918.546 601.644 920.278 600.665 921.124 599.241ZM915.656 587.715C913.035 587.715 910.724 589.05 910.324 592.21H920.678C920.545 589.184 918.455 587.715 915.656 587.715Z" fill="black"></path>
</g>
<defs>
<filter id="filter0_f_10827_1317" x="-1538.89" y="-1047.79" width="3495.57" height="3495.57" filterUnits="userSpaceOnUse" color-interpolation-filters="sRGB">
<feFlood flood-opacity="0" result="BackgroundImageFix"></feFlood>
<feBlend mode="normal" in="SourceGraphic" in2="BackgroundImageFix" result="shape"></feBlend>
<feGaussianBlur stdDeviation="112.37" result="effect1_foregroundBlur_10827_1317"></feGaussianBlur>
</filter>
<pattern id="pattern0_10827_1317" patternContentUnits="objectBoundingBox" width="1" height="1">
<use xlink:href="#image0_10827_1317" transform="scale(0.000244141 0.000488281)"></use>
</pattern>
<clipPath id="clip0_10827_1317">
<rect width="700" height="1014" fill="white" transform="translate(3.0598e-05 700) rotate(-90)"></rect>
</clipPath>
<image id="image0_10827_1317" width="4096" height="2048" preserveAspectRatio="none"></image>
</defs>
</svg>